<?xml version="1.0" standalone="no"?>
<!DOCTYPE svg PUBLIC "-//W3C//DTD SVG 20010904//EN"
 "http://www.w3.org/TR/2001/REC-SVG-20010904/DTD/svg10.dtd">
<svg version="1.0" xmlns="http://www.w3.org/2000/svg"
 width="190.000000pt" height="190.000000pt" viewBox="0 0 190.000000 190.000000"
 preserveAspectRatio="xMidYMid meet">
<metadata>
Created by potrace 1.14, written by Peter Selinger 2001-2017
</metadata>
<g transform="translate(0.000000,190.000000) scale(0.100000,-0.100000)"
fill="#000000" stroke="none">
<path d="M610 1725 l0 -175 475 0 475 0 0 175 0 175 -475 0 -475 0 0 -175z"/>
<path d="M460 955 l0 -175 480 0 480 0 0 175 0 175 -480 0 -480 0 0 -175z"/>
<path d="M320 195 l0 -175 475 0 475 0 0 175 0 175 -475 0 -475 0 0 -175z"/>
</g>
</svg>
